<?xml version="1.0" encoding="UTF-8" standalone="no"?><!DOCTYPE svg PUBLIC "-//W3C//DTD SVG 1.1//EN" "http://www.w3.org/Graphics/SVG/1.1/DTD/svg11.dtd"><svg width="100%" height="100%" viewBox="0 0 10834 2917" version="1.1" xmlns="http://www.w3.org/2000/svg" xmlns:xlink="http://www.w3.org/1999/xlink" xml:space="preserve" xmlns:serif="http://www.serif.com/" style="fill-rule:evenodd;clip-rule:evenodd;stroke-linejoin:round;stroke-miterlimit:1.41421;"><g><g><path d="M864.404,75.275l0,948.633l-215.625,0l0,-640.429l-86.133,640.429l-152.929,0l-90.821,-625.783l0,625.783l-215.625,0l0,-948.633l319.333,0c9.375,57.033 19.338,124.221 29.884,201.563l33.983,241.408l56.25,-442.971l321.683,0Z" style="fill:#0C354F;fill-rule:nonzero;"/><path d="M1572.17,75.275l0,633.983c0,71.875 -2.342,122.367 -7.03,151.467c-4.687,29.1 -18.554,58.983 -41.604,89.65c-23.046,30.663 -53.416,53.904 -91.112,69.725c-37.696,15.821 -82.129,23.729 -133.3,23.729c-56.642,0 -106.642,-9.375 -150,-28.125c-43.359,-18.75 -75.779,-43.162 -97.267,-73.241c-21.483,-30.08 -34.179,-61.817 -38.083,-95.213c-3.909,-33.4 -5.863,-103.617 -5.863,-210.646l0,-561.329l246.684,0l0,711.329c0,41.404 2.245,67.871 6.737,79.396c4.492,11.521 13.575,17.283 27.246,17.283c15.625,0 25.683,-6.345 30.175,-19.041c4.492,-12.696 6.737,-42.679 6.737,-89.942l0,-699.025l246.68,0Z" style="fill:#0C354F;fill-rule:nonzero;"/><path d="M2238.33,362.383l-229.104,0l0,-70.312c0,-32.813 -2.929,-53.708 -8.787,-62.696c-5.859,-8.983 -15.625,-13.475 -29.296,-13.475c-14.846,0 -26.075,6.054 -33.692,18.163c-7.616,12.112 -11.425,30.47 -11.425,55.079c0,31.641 4.296,55.471 12.888,71.483c8.204,16.017 31.446,35.354 69.729,58.008c109.762,65.238 178.904,118.75 207.421,160.55c28.516,41.796 42.775,109.179 42.775,202.146c0,67.579 -7.913,117.383 -23.734,149.417c-15.821,32.029 -46.387,58.883 -91.7,80.567c-45.312,21.679 -98.046,32.516 -158.2,32.516c-66.016,0 -122.362,-12.5 -169.046,-37.5c-46.679,-25 -77.245,-56.833 -91.695,-95.508c-14.455,-38.671 -21.684,-93.554 -21.684,-164.646l0,-62.112l229.104,0l0,115.433c0,35.546 3.221,58.396 9.667,68.554c6.446,10.154 17.871,15.233 34.279,15.233c16.404,0 28.613,-6.445 36.621,-19.337c8.008,-12.888 12.013,-32.029 12.013,-57.421c0,-55.858 -7.621,-92.383 -22.855,-109.571c-15.625,-17.187 -54.1,-45.896 -115.429,-86.133c-61.329,-40.625 -101.954,-70.117 -121.875,-88.475c-19.921,-18.358 -36.425,-43.75 -49.512,-76.171c-13.084,-32.425 -19.629,-73.829 -19.629,-124.221c0,-72.654 9.279,-125.779 27.833,-159.375c18.554,-33.591 48.533,-59.862 89.942,-78.808c41.404,-18.946 91.404,-28.417 150,-28.417c64.062,0 118.654,10.35 163.77,31.054c45.117,20.705 75,46.78 89.646,78.221c14.65,31.446 21.975,84.867 21.975,160.254l0,37.5Z" style="fill:#0C354F;fill-rule:nonzero;"/><path d="M2384.18,75.275l411.33,0l0,189.846l-164.65,0l0,179.879l154.104,0l0,180.471l-154.104,0l0,208.592l181.054,0l0,189.845l-427.734,0l0,-948.633Z" style="fill:#0C354F;fill-rule:nonzero;"/><path d="M3494.49,630.746c-0.001,95.312 -2.246,162.792 -6.738,202.442c-4.492,39.645 -18.554,75.875 -42.188,108.687c-23.633,32.813 -55.566,58.008 -95.799,75.587c-40.234,17.58 -87.109,26.367 -140.625,26.367c-50.784,0 -96.388,-8.3 -136.817,-24.9c-40.429,-16.604 -72.95,-41.504 -97.558,-74.708c-24.609,-33.204 -39.259,-69.338 -43.946,-108.4c-4.688,-39.063 -7.034,-107.421 -7.034,-205.075l0,-162.309c0,-95.312 2.25,-162.791 6.742,-202.437c4.492,-39.65 18.554,-75.879 42.188,-108.692c23.633,-32.812 55.566,-58.008 95.8,-75.587c40.233,-17.579 87.108,-26.367 140.624,-26.367c50.78,0 96.388,8.3 136.817,24.9c40.429,16.604 72.95,41.504 97.559,74.708c24.608,33.205 39.258,69.338 43.945,108.4c4.688,39.063 7.029,107.421 7.029,205.075l0,162.309Zm-246.679,-311.721c0,-44.142 -2.441,-72.363 -7.325,-84.667c-4.883,-12.304 -14.941,-18.458 -30.175,-18.458c-12.891,0 -22.754,4.979 -29.587,14.942c-6.838,9.962 -10.254,39.354 -10.254,88.183l0,442.971c0,55.075 2.245,89.062 6.737,101.95c4.492,12.891 14.942,19.337 31.346,19.337c16.796,0 27.542,-7.421 32.229,-22.266c4.688,-14.842 7.029,-50.196 7.029,-106.055l0,-435.937Z" style="fill:#0C354F;fill-rule:nonzero;"/><path d="M4655.12,75.275l0,948.633l-215.625,0l0,-640.429l-86.133,640.429l-152.93,0l-90.82,-625.783l0,625.783l-215.625,0l0,-948.633l319.337,0c9.375,57.033 19.334,124.221 29.879,201.563l33.988,241.408l56.25,-442.971l321.679,0Z" style="fill:#0C354F;fill-rule:nonzero;"/><path d="M5362.92,75.275l0,633.983c0,71.875 -2.346,122.367 -7.034,151.467c-4.687,29.1 -18.554,58.983 -41.6,89.65c-23.05,30.663 -53.421,53.904 -91.112,69.725c-37.696,15.821 -82.129,23.729 -133.304,23.729c-56.638,0 -106.638,-9.375 -150,-28.125c-43.359,-18.75 -75.779,-43.162 -97.263,-73.241c-21.487,-30.08 -34.183,-61.817 -38.087,-95.213c-3.909,-33.4 -5.859,-103.617 -5.859,-210.646l0,-561.329l246.68,0l-0.001,711.329c0.001,41.404 2.246,67.871 6.738,79.396c4.492,11.521 13.575,17.283 27.246,17.283c15.625,0 25.683,-6.345 30.175,-19.041c4.491,-12.696 6.737,-42.679 6.737,-89.942l0,-699.025l246.684,0Z" style="fill:#0C354F;fill-rule:nonzero;"/><path d="M6057.21,75.275l0,948.633l-216.212,0l-128.321,-431.25l0,431.25l-206.25,0l0,-948.633l206.25,0l138.283,427.15l0,-427.15l206.25,0Z" style="fill:#0C354F;fill-rule:nonzero;"/><rect x="6204.21" y="75.275" width="246.679" height="948.633" style="fill:#0C354F;"/><path d="M7173.92,488.946l-246.68,0l0.001,-165.234c-0.001,-48.045 -2.638,-78.024 -7.913,-89.941c-5.271,-11.913 -16.896,-17.871 -34.862,-17.871c-20.313,0 -33.205,7.225 -38.671,21.679c-5.471,14.454 -8.204,45.704 -8.204,93.75l0,440.625c0,46.096 2.733,76.171 8.204,90.234c5.466,14.062 17.771,21.095 36.912,21.095c18.359,0 30.371,-7.033 36.038,-21.095c5.662,-14.063 8.495,-47.067 8.495,-99.021l0.001,-118.946l246.679,0l0,36.912c0,98.05 -6.934,167.58 -20.8,208.596c-13.871,41.017 -44.534,76.954 -91.996,107.813c-47.458,30.858 -105.954,46.287 -175.488,46.287c-72.266,0 -131.833,-13.083 -178.708,-39.258c-46.875,-26.171 -77.933,-62.4 -93.167,-108.692c-15.233,-46.287 -22.85,-115.916 -22.85,-208.883l0,-277.15c0,-68.358 2.342,-119.629 7.03,-153.808c4.687,-34.18 18.654,-67.092 41.895,-98.73c23.242,-31.641 55.471,-56.545 96.68,-74.708c41.212,-18.162 88.575,-27.246 142.091,-27.246c72.654,0 132.617,14.063 179.884,42.188c47.262,28.125 78.316,63.183 93.162,105.175c14.842,41.991 22.267,107.325 22.267,195.996l0,90.233Z" style="fill:#0C354F;fill-rule:nonzero;"/><rect x="7310.38" y="75.275" width="246.679" height="948.633" style="fill:#0C354F;"/><path d="M7704.08,75.275l248.438,0c67.187,0 118.846,5.275 154.979,15.821c36.133,10.546 63.283,25.779 81.446,45.704c18.162,19.921 30.471,44.042 36.912,72.362c6.446,28.321 9.671,72.167 9.671,131.542l0,82.617c0,60.55 -6.25,104.687 -18.75,132.425c-12.5,27.733 -35.45,49.021 -68.85,63.867c-33.396,14.841 -77.05,22.262 -130.954,22.262l-66.213,0l0,382.033l-246.679,0l0,-948.633Zm246.68,162.304l-0.001,241.409c7.03,0.387 13.088,0.583 18.163,0.583c22.658,0 38.379,-5.567 47.171,-16.696c8.787,-11.133 13.183,-34.279 13.183,-69.437l0,-77.93c0,-32.42 -5.079,-53.512 -15.237,-63.279c-10.154,-9.766 -31.25,-14.65 -63.279,-14.65Z" style="fill:#0C354F;fill-rule:nonzero;"/><path d="M8750.5,75.275l141.208,948.633l-252.537,0l-12.304,-170.508l-88.475,0l-14.65,170.508l-255.471,0l125.391,-948.633l356.838,0Zm-130.667,609.963c-12.5,-107.425 -25,-240.042 -37.5,-397.855c-25,181.25 -40.625,313.867 -46.875,397.855l84.375,0Z" style="fill:#0C354F;fill-rule:nonzero;"/><path d="M9228.58,75.275l0,758.788l150,0l0,189.845l-396.683,0l0,-948.633l246.683,0Z" style="fill:#0C354F;fill-rule:nonzero;"/><path d="M83.788,1175.78l111.512,0c71.979,0 120.654,3.304 146.025,9.912c25.371,6.609 44.662,17.463 57.879,32.567c13.217,15.104 21.475,31.921 24.779,50.446c3.305,18.529 4.959,54.933 4.959,109.212l0,200.721c0,51.446 -2.421,85.846 -7.259,103.192c-4.837,17.346 -13.275,30.917 -25.312,40.708c-12.034,9.796 -26.904,16.642 -44.604,20.534c-17.7,3.895 -44.367,5.841 -80.004,5.841l-187.975,0l0,-573.133Zm149.033,98.058l0,377.017c21.479,0 34.696,-4.308 39.65,-12.921c4.958,-8.617 7.433,-32.037 7.433,-70.271l0,-222.666c0,-25.963 -0.825,-42.6 -2.475,-49.917c-1.654,-7.317 -5.429,-12.683 -11.329,-16.108c-5.9,-3.421 -16.992,-5.134 -33.279,-5.134Z" style="fill:#0C354F;fill-rule:nonzero;"/><path d="M513.521,1175.78l248.508,0l0,114.7l-99.475,0l0,108.679l93.104,0l0,109.034l-93.104,-0.001l0,126.025l109.388,0l0,114.696l-258.421,0l0,-573.133Z" style="fill:#0C354F;fill-rule:nonzero;"/><path d="M1342.54,1386.76l-149.038,0l0,-52.038c0,-32.804 -1.416,-53.337 -4.246,-61.6c-2.833,-8.258 -9.558,-12.387 -20.179,-12.387c-9.204,0 -15.458,3.537 -18.762,10.62c-3.304,7.08 -4.959,25.25 -4.959,54.517l0,275.058c0,25.725 1.655,42.659 4.959,50.8c3.304,8.142 9.912,12.213 19.825,12.213c10.854,0 18.229,-4.6 22.125,-13.804c3.891,-9.204 5.841,-27.142 5.841,-53.809l0,-67.97l-30.091,0l0,-87.084l174.525,0l0,307.629l-93.813,0l-13.804,-41.066c-10.15,17.704 -22.954,30.979 -38.412,39.829c-15.459,8.85 -33.688,13.275 -54.692,13.275c-25.017,0 -48.442,-6.079 -70.271,-18.233c-21.829,-12.155 -38.408,-27.2 -49.737,-45.134c-11.33,-17.937 -18.409,-36.758 -21.242,-56.466c-2.829,-19.705 -4.246,-49.263 -4.246,-88.675l0,-170.28c0,-54.75 2.95,-94.516 8.85,-119.295c5.9,-24.784 22.833,-47.496 50.8,-68.146c27.967,-20.65 64.133,-30.975 108.5,-30.975c43.663,0 79.888,8.966 108.679,26.904c28.792,17.933 47.554,39.233 56.288,63.896c8.733,24.662 13.1,60.475 13.1,107.441l0,24.78Z" style="fill:#0C354F;fill-rule:nonzero;"/><path d="M1768.03,1175.78l0,383.033c0,43.425 -1.417,73.929 -4.25,91.509c-2.829,17.583 -11.208,35.637 -25.133,54.162c-13.925,18.529 -32.271,32.571 -55.046,42.129c-22.775,9.559 -49.621,14.338 -80.538,14.338c-34.22,0 -64.429,-5.667 -90.625,-16.996c-26.195,-11.325 -45.783,-26.075 -58.762,-44.25c-12.983,-18.171 -20.65,-37.346 -23.013,-57.525c-2.358,-20.179 -3.537,-62.6 -3.537,-127.262l0,-339.138l149.033,0l0,429.763c0,25.016 1.359,41.004 4.071,47.966c2.713,6.963 8.2,10.442 16.463,10.442c9.437,0 15.516,-3.833 18.229,-11.504c2.716,-7.671 4.071,-25.784 4.071,-54.338l0,-422.329l149.037,0Z" style="fill:#0C354F;fill-rule:nonzero;"/><path d="M2112.09,1175.78l85.316,573.133l-152.575,0l-7.437,-103.016l-53.455,0l-8.85,103.016l-154.345,0l75.758,-573.133l215.587,0Zm-78.941,368.521c-7.554,-64.904 -15.104,-145.025 -22.659,-240.371c-15.104,109.504 -24.541,189.629 -28.32,240.371l50.979,0Z" style="fill:#0C354F;fill-rule:nonzero;"/><path d="M2525.89,1175.78l-108.679,365.687l0,207.446l-138.063,0l0,-207.446l-104.787,-365.687l137,0c21.479,111.629 33.512,186.796 36.108,225.5c8.262,-61.125 22.067,-136.292 41.421,-225.5l137,0Z" style="fill:#0C354F;fill-rule:nonzero;"/><path d="M2801.63,1175.78l85.317,573.133l-152.575,0l-7.434,-103.016l-53.454,0l-8.85,103.016l-154.345,0l75.754,-573.133l215.587,0Zm-78.941,368.521c-7.551,-64.904 -15.105,-145.025 -22.655,-240.371c-15.104,109.504 -24.545,189.629 -28.321,240.371l50.976,0Z" style="fill:#0C354F;fill-rule:nonzero;"/><path d="M3282.34,1748.91l0,69.384l-112.575,0c-27.142,0 -46.259,-2.063 -57.35,-6.196c-11.092,-4.129 -18.584,-10.325 -22.48,-18.584c-3.891,-8.258 -5.841,-23.129 -5.841,-44.604c-33.746,-0.945 -62.775,-9.795 -87.084,-26.55c-24.308,-16.758 -40.354,-38.054 -48.145,-63.9c-7.788,-25.841 -11.68,-64.487 -11.68,-115.933l0,-177.358c0,-38.938 2.3,-68.617 6.9,-89.03c4.605,-20.416 14.105,-39.65 28.5,-57.704c14.396,-18.054 32.921,-31.683 55.58,-40.887c22.654,-9.204 47.787,-13.804 75.4,-13.804c33.279,0 62.954,5.662 89.033,16.991c26.079,11.325 45.55,25.721 58.412,43.188c12.859,17.462 21.238,35.575 25.134,54.337c3.891,18.763 5.841,46.671 5.841,83.725l0.001,186.204c-0.001,50.975 -2.48,85.55 -7.438,103.726c-4.954,18.17 -14.454,32.625 -28.496,43.362c-14.041,10.742 -32.746,18.942 -56.108,24.604c0.708,12.746 3.362,20.771 7.962,24.071c4.605,3.304 15.521,4.958 32.746,4.958l51.688,0Zm-149.392,-425.866c0,-26.667 -1.475,-43.721 -4.425,-51.155c-2.95,-7.433 -9.025,-11.149 -18.229,-11.149c-7.792,-0.001 -13.75,3.008 -17.879,9.024c-4.13,6.021 -6.196,23.78 -6.196,53.28l0,267.625c0,33.279 1.358,53.808 4.071,61.6c2.716,7.787 9.029,11.679 18.941,11.679c10.146,0 16.638,-4.484 19.471,-13.45c2.829,-8.971 4.246,-30.329 4.246,-64.075l0,-263.379Z" style="fill:#0C354F;fill-rule:nonzero;"/><path d="M3705.35,1175.78l0,383.033c0,43.425 -1.417,73.929 -4.246,91.509c-2.833,17.583 -11.212,35.637 -25.137,54.162c-13.921,18.529 -32.271,32.571 -55.046,42.129c-22.775,9.559 -49.621,14.338 -80.538,14.338c-34.221,0 -64.429,-5.667 -90.625,-16.996c-26.196,-11.325 -45.783,-26.075 -58.762,-44.25c-12.979,-18.171 -20.65,-37.346 -23.013,-57.525c-2.358,-20.179 -3.537,-62.6 -3.537,-127.262l0,-339.138l149.033,0l0,429.763c0,25.016 1.358,41.004 4.071,47.966c2.717,6.963 8.204,10.442 16.462,10.442c9.442,0 15.517,-3.833 18.234,-11.504c2.712,-7.671 4.071,-25.784 4.071,-54.338l0,-422.329l149.033,0Z" style="fill:#0C354F;fill-rule:nonzero;"/><rect x="3792.05" y="1175.78" width="149.037" height="573.133" style="fill:#0C354F;"/><path d="M4178.96,1175.78l0,458.438l90.625,-0.001l0,114.696l-239.658,0l0,-573.133l149.033,0Z" style="fill:#0C354F;fill-rule:nonzero;"/></g></g><g><path d="M4634.12,2387.36l753.017,-84.93l-51.909,-98.229l-129.966,26.513l103.916,-52.563l-52.046,-84.979l-623.012,294.188Z" style="fill:#0C354F;fill-opacity:0.47451;fill-rule:nonzero;"/><path d="M5686.42,2694.66c0,0 1975.55,-687.017 1990.59,-726.721c15.121,-39.725 -54.325,-87.492 -194.671,-53.621c-140.171,34.175 -1155.76,161.083 -1155.76,161.083l-105.271,114.054l1097.38,-159.175l-1342.96,460.055l245.583,-300.863l521.254,-573.563c0,0.001 -125.412,-34.158 -180.521,5.755c-55.3,39.62 -665.129,261.02 -665.129,261.02l-5.083,85.271l434.733,-176.058l-280.671,318.054l-164.15,28.321l-4.933,85.033l68.846,-11.35l-63.913,81.805l-4.933,230.683l-190.387,170.217Z" style="fill:#0C354F;fill-opacity:0.47451;fill-rule:nonzero;"/><path d="M5731.92,1984.28l171.566,-123.304l-21.441,685.325l-175.334,147.446l25.209,-709.467Z" style="fill:#cbc3c0;fill-rule:nonzero;"/><path d="M5735.42,1986.58l-24.729,698.709l167.829,-141.18l21.1,-675.75l-164.2,118.221Zm-32.454,715.421l0.258,-8.521l25.191,-711.458l1.575,-1.146l177.317,-127.692l-0.221,7.784l-21.491,687.458l-1.421,1.196l-181.208,152.379Z" style="fill:#cbc3c0;fill-rule:nonzero;"/><path d="M5233.88,1843.78l174.079,-122.35l187.954,284.359l-10.358,359.741l-351.675,-521.75Z" style="fill:#cbc3c0;fill-rule:nonzero;"/><path d="M4698,1696.05l177.438,-114.309l-3.359,362.405l-167.537,173.05l-6.542,-421.146Z" style="fill:#cbc3c0;fill-rule:nonzero;"/><path d="M4701.67,1698.47l6.321,409.675l160.52,-165.967l3.271,-353.254l-170.112,109.546Zm-0.496,427.837l-6.833,-432.754l184.733,-118.783l-3.371,371.096l-1.217,1.262l-173.312,179.179Z" style="fill:#cbc3c0;fill-rule:nonzero;"/><path d="M5168.79,1988.87l-30.5,-50.617l-463.884,434.325l216.846,-105.808l277.538,-277.9Z" style="fill:#cbc3c0;fill-rule:nonzero;"/><path d="M5137.58,1944.14l-441.346,413.246l193.025,-94.013l274.609,-275l-26.288,-44.233Zm-461.691,432.212l-3.767,-6.966l466.933,-437.28l34.525,57.496l-280.966,280.992l-216.725,105.758Z" style="fill:#cbc3c0;fill-rule:nonzero;"/><path d="M4558.88,1651.01l8.596,647.804c0,0 33.412,112.65 106.933,73.762l458.967,-430.262l508.904,755.691c0,0 93.833,31.209 80.425,-73.458l20.071,-643.467l-150.758,-42.762l-6.559,426.271l-351.571,-523.255l-197.716,-61.933l-331.571,329.409l-6.575,-414.763l-139.146,-43.038Z" style="fill:#938379;fill-rule:nonzero;"/><path d="M5644.33,2694.35c3.375,1.113 14.334,3.929 26.663,3.929c17.746,0 30.983,-5.616 39.204,-16.475c9.179,-12.12 12.158,-31.241 8.854,-56.729l19.984,-640.854l-143.563,-40.579l-6.662,432.791l-6.184,-9.254l-350.854,-522.158l-194.733,-61.146l-335.888,333.808l-6.662,-420.445l-132.004,-40.817l8.579,641.725c2.279,7.271 26.171,78.392 73.454,78.392c8.887,0 18.325,-2.475 27.983,-7.546l461.363,-432.604l510.466,757.962Zm26.663,12.208c-15.975,0 -29.233,-4.266 -29.779,-4.525l-1.129,-0.358l-0.705,-1.108l-506.629,-752.484l-456.825,428.267c-10.704,5.496 -21.358,8.517 -31.425,8.517c-54.666,0 -79.412,-81.138 -80.458,-84.654l-0.204,-1.284l-8.717,-653.4l146.458,45.459l0.067,3.02l6.321,405.938l327.204,-324.95l200.763,62.787l0.666,0.959l345.392,514.066l6.525,-419.595l157.95,44.537l-20.313,646.983c3.634,27.096 0,48.23 -10.479,62.413c-9.575,12.6 -24.987,19.412 -44.683,19.412" style="fill:#938379;fill-rule:nonzero;"/><path d="M4631.08,925.671l241.934,3.996l407.487,626.104l-142.417,147.804l-507.004,-777.904Z" style="fill:#a1a2a9;fill-rule:nonzero;"/><path d="M4638.29,930.092l500.308,767.387l137.092,-142.221l-404.459,-621.562l-232.941,-3.604Zm499.262,779.508l-2.346,-3.583l-511.425,-784.425l251.08,4.046l1.012,1.537l409.404,629.213l-2.346,2.437l-145.379,150.775Z" style="fill:#a1a2a9;fill-rule:nonzero;"/><path d="M5659.88,1189.8l181.667,-95.633c0,0 74.204,8.554 84.483,87.37l-25.604,682.563l-158.671,117.996l12.967,-719.092c0,0.017 -48.725,-76.021 -94.842,-73.204" style="fill:#a1a2a9;fill-rule:nonzero;"/><path d="M5673.83,1186.98c42.455,9.971 81.875,70.675 83.642,73.529l0.804,1.092l0,1.417l-12.829,711.325l151.358,-112.688l25.688,-680.204c-9.129,-69.429 -72.046,-81.583 -80.354,-83.017l-168.309,88.546Zm64.184,802.625l0,-7.579l12.983,-717.762c-6.113,-9.238 -50.213,-73.167 -90.938,-70.284l-1.745,-7.871l182.645,-95.991l0.905,0.071c0.825,0.05 77.204,9.779 87.72,90.783l-25.691,685.379l-165.879,123.254Z" style="fill:#a1a2a9;fill-rule:nonzero;"/><path d="M4682.38,1701.8l203.763,-116.75l0,-34.637l-197.8,-265.067l-5.963,416.454Z" style="fill:#a1a2a9;fill-rule:nonzero;"/><path d="M4691.75,1296.27l-5.787,398.921l196.45,-112.688l0,-30.591l-190.663,-255.642Zm-13.1,412.287l0.088,-6.758l6.079,-427.362l204.754,274.437l0,38.767l-210.921,120.916Z" style="fill:#a1a2a9;fill-rule:nonzero;"/><path d="M5238.08,1842.98l151.355,-103.437l215.408,-232.409l-366.763,335.846Z" style="fill:#acadb3;fill-rule:nonzero;"/><path d="M5538.08,1573.68l-256.575,234.988l106.13,-72.675l150.445,-162.313Zm-298.17,272.917l-3.975,-6.758l366.779,-335.842l4.691,6.229l-215.558,232.408l-151.937,103.963Z" style="fill:#acadb3;fill-rule:nonzero;"/><path d="M4559.67,1673.97l-10.021,-672.742c0,0 -5.05,-52.154 81.333,-75.283l495.463,762.45l532.521,-497.146c0,0 100.562,11.521 100.562,118.696l-20.158,672.658l-150.588,-30.608l13.259,-447.184l-371.542,343.971l-201.092,-53.4l-338.025,-512.171l6.9,415.259l-138.612,-24.5Z" style="fill:#371711;fill-rule:nonzero;"/><path d="M5592.38,1948.63l143.546,29.275l19.883,-668.22c0,-95.238 -83.712,-112.175 -95.733,-114.171l-534.288,498.704l-2.137,-3.45l-494.179,-760.133c-79.496,22.158 -76.396,68.216 -76.279,70.129l10.037,669.587l131.404,23.354l-7.175,-422.991l344.038,520.875l198.025,52.804l376.371,-348.458l-13.513,452.695Zm150.467,38.971l-157.763,-32.125l13.204,-441.754l-366.97,339.546l-1.68,-0.304l-202.304,-53.896l-0.837,-1.279l-331.4,-502.067l6.833,407.729l-145.758,-26.016l0,-3.484l-10.067,-672.625c-0.225,-1.979 -4.421,-55.616 84,-79.45l2.242,-0.596l494.712,761.038l530.842,-495.342l1.421,0.104c1.112,0.171 103.696,13.263 103.696,122.863l-20.171,677.658Z" style="fill:#371711;fill-rule:nonzero;"/></g></svg>
